<svg width="96" height="96" viewBox="0 0 96 96" fill="none" xmlns="http://www.w3.org/2000/svg">
<g clip-path="url(#clip0)">
<path d="M65.2537 29.0903C64.2167 29.0903 63.375 29.9282 63.375 30.9646C63.375 32.0002 64.2167 32.8396 65.2537 32.8396C66.2928 32.8396 67.1323 32.0002 67.1323 30.9646C67.1323 29.9282 66.2928 29.0903 65.2537 29.0903Z" fill="white"/>
<path d="M31.1191 63.1575C30.08 63.1575 29.2405 63.9976 29.2405 65.0325C29.2405 66.0696 30.08 66.9075 31.1191 66.9075C32.1561 66.9075 32.9978 66.0696 32.9978 65.0325C32.9978 63.9976 32.1561 63.1575 31.1191 63.1575Z" fill="white"/>
<path d="M93.9447 11.5313C93.3106 11.3841 92.6443 11.5753 92.1863 12.0367L84.3979 19.8714H80.6641L76.5538 15.6212V11.8426L84.2306 4.06646C84.6849 3.6065 84.8698 2.94513 84.7194 2.31598C84.5697 1.68756 84.1059 1.18072 83.4924 0.974178C81.5638 0.325251 79.5457 -0.0036063 77.4931 -0.0036063C71.3742 -0.0036063 65.8153 2.84405 62.2414 7.80914C58.8965 12.4571 57.8654 18.1531 59.3427 23.6046L45.5043 37.4159L22.4495 14.3533V9.82697C22.4495 9.16852 22.1032 8.55768 21.5374 8.2193L8.25385 0.263728C7.51413 -0.179388 6.56819 -0.0629325 5.95909 0.545711L0.645975 5.84772C0.0368754 6.45636 -0.0798074 7.40045 0.363441 8.13873L8.33311 21.3963C8.67215 21.961 9.28345 22.306 9.94319 22.3067L14.4769 22.3082L37.5339 45.3707L23.7485 59.1292C18.2864 57.6556 12.5763 58.6861 7.91701 62.0267C2.94514 65.5914 0.0941162 71.138 0.0941162 77.245C0.0941162 79.2928 0.423617 81.3077 1.07381 83.2318C1.28149 83.8478 1.79446 84.3129 2.42851 84.4593C3.06329 84.6066 3.7289 84.4154 4.18756 83.954L11.9752 76.12H15.7296L20.0073 80.3893V84.1363L12.158 91.9088C11.6956 92.3666 11.5041 93.0309 11.6516 93.6644C11.7984 94.2972 12.2644 94.8092 12.8815 95.0165C14.8094 95.6654 16.8282 95.9943 18.8801 95.9943C24.999 95.9943 30.5557 93.1481 34.1281 88.1859C37.4752 83.5358 38.5078 77.8375 37.0313 72.3861L48.1029 61.336L50.6391 64.0855L49.4752 65.2464C48.7414 65.9789 48.7414 67.1661 49.4752 67.8985C50.2091 68.6302 51.3979 68.6302 52.1325 67.8985L53.1863 66.8468L76.9823 92.6442C76.9999 92.6632 77.0183 92.6815 77.0366 92.6998C81.4398 97.0944 88.5736 97.0958 92.9789 92.6991C97.3718 88.3126 97.3718 81.1752 92.9789 76.7887C92.9598 76.7696 92.94 76.7513 92.9202 76.733L67.032 53.0289L68.0741 51.9889C68.8079 51.2572 68.8079 50.0699 68.0741 49.3375C67.3402 48.6051 66.1514 48.6051 65.4168 49.3375L64.2609 50.4918L61.5009 47.9635L72.6262 36.8599C74.2076 37.2818 75.8397 37.4957 77.4931 37.4957C87.8522 37.4957 96.2791 29.0845 96.2791 18.7464C96.2791 16.6978 95.9496 14.6837 95.2994 12.7589C95.0917 12.1429 94.5787 11.6778 93.9447 11.5313ZM16.586 19.109C16.2338 18.7567 15.7561 18.5772 15.257 18.5772L11.008 18.5758L4.3402 7.46491L7.57871 4.23272L18.6922 10.889V15.1297C18.6922 15.6263 18.8896 16.1024 19.2411 16.4539L42.8478 40.068L40.1905 42.7193L16.586 19.109ZM64.3725 55.6832L90.3488 79.4672C93.2504 82.3939 93.2416 87.1327 90.3216 90.0485C87.395 92.9694 82.6572 92.9781 79.7189 90.0741L55.8451 64.1925L64.3725 55.6832ZM61.6015 53.1454L53.2979 61.4313L50.7617 58.6817L58.8414 50.617L61.6015 53.1454ZM77.4931 33.7457C75.85 33.7457 74.234 33.4827 72.6915 32.9642C72.0156 32.7379 71.2685 32.9122 70.7636 33.4154C61.3453 42.8153 41.0513 63.0689 33.5785 70.5279C33.0736 71.0318 32.8982 71.7775 33.1264 72.4527C34.6881 77.0809 33.941 82.0174 31.076 85.9982C28.2191 89.9672 23.7734 92.2443 18.8801 92.2443C18.3304 92.2443 17.7837 92.2142 17.2421 92.1564L23.2091 86.2472C23.5643 85.8956 23.7646 85.4166 23.7646 84.9164V79.6122C23.7646 79.1149 23.5665 78.6381 23.2142 78.2865L17.8358 72.9186C17.4835 72.567 17.0058 72.3692 16.5075 72.3692H11.1929C10.6917 72.3692 10.2118 72.5692 9.85879 72.9237L3.93878 78.879C3.88008 78.3385 3.85072 77.7928 3.85072 77.2442C3.85072 72.3597 6.13154 67.9234 10.109 65.0721C14.0968 62.2127 19.0437 61.4664 23.6817 63.0257C24.3576 63.2535 25.1046 63.0785 25.6095 62.5746C25.713 62.472 62.7683 25.4884 62.7947 25.462C63.2996 24.9581 63.4743 24.2132 63.2468 23.5379C61.6844 18.9097 62.43 13.9747 65.2927 9.99689C68.1518 6.02423 72.5983 3.7464 77.4924 3.7464C78.0589 3.7464 78.6218 3.77789 79.1795 3.83941L73.3365 9.75812C72.9902 10.1089 72.7964 10.5814 72.7964 11.0736V16.3778C72.7964 16.8641 72.985 17.3306 73.3233 17.68L78.5139 23.0479C78.8676 23.4141 79.3556 23.6207 79.8656 23.6207H85.1802C85.6807 23.6207 86.1607 23.4215 86.5136 23.0662L92.4337 17.1116C92.4924 17.6522 92.5217 18.1978 92.5217 18.7464C92.5217 27.0169 85.7798 33.7457 77.4931 33.7457Z" fill="white"/>
<path d="M58.6122 34.9417L35.1032 58.4048C34.3701 59.1365 34.3701 60.3237 35.1032 61.0562C35.837 61.7886 37.0266 61.7886 37.7605 61.0562L61.2695 37.593C62.0033 36.8613 62.0033 35.6741 61.2695 34.9417C60.5356 34.2092 59.346 34.2092 58.6122 34.9417Z" fill="white"/>
<path d="M82.3525 84.7501C83.0864 85.4803 84.276 85.4803 85.0098 84.7457C85.7422 84.0125 85.74 82.8252 85.0054 82.0943L68.0717 65.2478C67.3371 64.5169 66.1468 64.5191 65.4151 65.2522C64.682 65.9861 64.6842 67.1726 65.4188 67.9036L82.3525 84.7501Z" fill="white"/>
</g>
<defs>
<clipPath id="clip0">
<rect width="96" height="96" fill="white"/>
</clipPath>
</defs>
</svg>
